<?xml version="1.0" encoding="UTF-8"?>
<svg id="Layer_1" xmlns="http://www.w3.org/2000/svg" version="1.1" xmlns:xlink="http://www.w3.org/1999/xlink" viewBox="0 0 124 101">
  <!-- Generator: Adobe Illustrator 29.1.0, SVG Export Plug-In . SVG Version: 2.1.0 Build 142)  -->
  <defs>
    <style>
      .st0 {
        fill: #f49c0e;
        fill-rule: evenodd;
      }

      .st1 {
        fill: #fff;
      }

      .st2 {
        fill: url(#linear-gradient1);
      }

      .st3 {
        fill: #ee2e24;
      }

      .st4 {
        fill: url(#linear-gradient);
      }
    </style>
    <linearGradient id="linear-gradient" x1="16" y1="46.9" x2="109.3" y2="-6.9" gradientUnits="userSpaceOnUse">
      <stop offset=".6" stop-color="#ee2e24"/>
      <stop offset=".7" stop-color="#d2241b"/>
      <stop offset=".8" stop-color="#a2150c"/>
      <stop offset=".9" stop-color="#850b03"/>
      <stop offset="1" stop-color="#7a0800"/>
    </linearGradient>
    <linearGradient id="linear-gradient1" x1="20.6" y1="28" x2="17.2" y2="19.2" gradientUnits="userSpaceOnUse">
      <stop offset="0" stop-color="#ee2e24"/>
      <stop offset=".2" stop-color="#d0281e"/>
      <stop offset=".5" stop-color="#a02015"/>
      <stop offset=".8" stop-color="#831b10"/>
      <stop offset=".9" stop-color="#781a0e"/>
      <stop offset="1" stop-color="#781a0e"/>
    </linearGradient>
  </defs>
  <g>
    <g id="World_Challenge">
      <path class="st1" d="M19.3,46.9c.1,0,.1,0,.1.1l-2.1,5.4c-.4.9-.6,1-1.6,1s-1.3-.1-1.3-1l-.3-3.2-1.4,3.2c-.4.9-.6,1-1.7,1s-1.2-.1-1.2-1l-.2-5.4c0-.1,0-.1.1-.1h1.2c0,0,.1,0,.1.1l.2,4.8c0,.2,0,.3.2.3s.2,0,.3-.3l2-4.6c0-.1.1-.1.2-.1h1.1c0,0,.2,0,.2.1l.4,4.6c0,.2,0,.3.2.3s.2,0,.3-.3l1.9-4.8c0-.1,0-.1.1-.1h1.2Z"/>
      <path class="st1" d="M25.8,50.2c-.4,2.5-1.2,3.3-3.6,3.3s-2.9-.7-2.4-3.3c.4-2.6,1.2-3.3,3.6-3.3s2.9.8,2.4,3.3ZM21.2,50.2c-.3,1.6-.1,2.1,1.2,2.1s1.6-.5,1.9-2.1c.3-1.6.1-2.2-1.2-2.2s-1.6.5-1.9,2.2Z"/>
      <path class="st1" d="M32.8,49c-.2,1.3-.7,1.8-1.8,2l1.2,2.3c0,0,0,.2-.1.2h-1.2c-.2,0-.3,0-.3-.2l-1.1-2.2h-.9l-.4,2.2c0,.1,0,.1-.2.1h-1.2c-.1,0-.1,0-.1-.1l1.1-6.2c0,0,0-.1.2-.1.9,0,1.7,0,2.5,0,2.1,0,2.7.5,2.4,2.2ZM29,48l-.4,2h1c1.1,0,1.4-.1,1.6-1,.1-.8-.1-1-1.2-1h-1Z"/>
      <path class="st1" d="M35.9,46.9c0,0,.1,0,.1.1l-.9,5.2h3.1c0,0,.1,0,.1.1l-.2.9c0,0,0,.1-.2.1h-4.4c0,0-.1,0-.1-.1l1.1-6.3c0,0,0-.1.2-.1h1.2Z"/>
      <path class="st1" d="M45.2,50.2c-.4,2.3-1.4,3.3-3.6,3.3s-1.9,0-2.7,0c-.1,0-.1,0-.1-.1l1.1-6.2c0,0,0-.1.2-.1.9,0,1.8,0,2.7,0,2.2,0,2.9,1,2.4,3.3ZM41.2,48l-.8,4.3h1.4c1.1,0,1.7-.6,1.9-2.1.3-1.6,0-2.2-1.2-2.2h-1.3Z"/>
      <path class="st1" d="M54.2,47c.1,0,.2,0,.2.2v.7c-.1,0-.2.1-.3.1h-1.9c-1.3,0-1.6.5-1.9,2.1-.3,1.6-.2,2.2,1.1,2.2h1.9c0,0,.1,0,.1.1v.7c-.1.1-.2.2-.4.2-.5,0-1,.1-1.9.1-2.4,0-2.9-.8-2.4-3.3.4-2.5,1.2-3.3,3.6-3.3s1.4,0,1.8.1Z"/>
      <path class="st1" d="M61.1,46.9c0,0,.1,0,.1.1l-1.1,6.2c0,0,0,.1-.2.1h-1.2c0,0-.1,0-.1-.1l.4-2.5h-3.1l-.4,2.5c0,0,0,.1-.2.1h-1.2c0,0-.1,0-.1-.1l1.1-6.2c0,0,0-.1.2-.1h1.2c0,0,.1,0,.1.1l-.4,2.5h3.1l.4-2.5c0,0,0-.1.2-.1h1.2Z"/>
      <path class="st1" d="M66.8,47.9l.7,5.4c0,.1,0,.1-.1.1h-1.2c0,0,0,0-.1-.1l-.2-1.8h-2.5l-.9,1.8c0,.1,0,.1-.2.1h-1.2c-.1,0-.1,0,0-.1l2.6-5.4c.4-.9.7-1,1.7-1s1.3,0,1.4,1ZM65,48.2l-1.1,2.2h1.8l-.3-2.2c0-.2,0-.2-.2-.2s-.2,0-.3.2Z"/>
      <path class="st1" d="M71,46.9c0,0,.1,0,.1.1l-.9,5.2h3.1c0,0,.1,0,.1.1l-.2.9c0,0,0,.1-.2.1h-4.4c0,0-.1,0-.1-.1l1.1-6.3c0,0,0-.1.2-.1h1.2Z"/>
      <path class="st1" d="M76.4,46.9c0,0,.1,0,.1.1l-.9,5.2h3.1c0,0,.1,0,.1.1l-.2.9c0,0,0,.1-.2.1h-4.4c0,0-.1,0-.1-.1l1.1-6.3c0,0,0-.1.2-.1h1.2Z"/>
      <path class="st1" d="M85.3,46.9c0,0,.1,0,.1.1l-.2.9c0,0,0,.1-.2.1h-3.4l-.3,1.6h3.1c0,0,.1,0,.1.1l-.2.9c0,0,0,.1-.2.1h-3.1l-.3,1.5h3.4c0,0,.1,0,.1.1l-.2.9c0,0,0,.1-.2.1h-4.7c0,0-.1,0-.1-.1l1.1-6.3c0,0,0-.1.2-.1h4.7Z"/>
      <path class="st1" d="M92.6,46.9c0,0,.1,0,.1.1l-1.1,6.2c0,0,0,.1-.2.1h-.9c-.2,0-.3,0-.4-.2l-2.4-4-.7,4.1c0,0,0,.1-.2.1h-1.2c0,0-.1,0-.1-.1l1.1-6.2c0,0,0-.1.2-.1h.9c.4,0,.4,0,.5.3l2.2,3.8.7-4c0,0,0-.1.2-.1h1.2Z"/>
      <path class="st1" d="M99.1,47c.1,0,.2,0,.2.2v.7c-.1,0-.2.1-.3.1h-2.1c-1.3,0-1.6.5-1.9,2.2-.3,1.6-.1,2.1,1.1,2.1h1.2l.3-2c0,0,0-.1.2-.1h1.1c0,0,.1,0,.1.1l-.4,2.4c0,.1,0,.2,0,.2-.3.3-1.5.5-2.6.5-2.4,0-2.9-.7-2.4-3.3.5-2.6,1.2-3.3,3.6-3.3s1.5,0,2,.1Z"/>
      <path class="st1" d="M105.8,46.9c0,0,.1,0,.1.1l-.2.9c0,0,0,.1-.2.1h-3.4l-.3,1.6h3.1c0,0,.1,0,.1.1l-.2.9c0,0,0,.1-.2.1h-3.1l-.3,1.5h3.4c0,0,.1,0,.1.1l-.2.9c0,0,0,.1-.2.1h-4.7c0,0-.1,0-.1-.1l1.1-6.3c0,0,0-.1.2-.1h4.7Z"/>
    </g>
    <g id="GT">
      <g>
        <g>
          <path class="st4" d="M57.7,40.5l21.6-21.3H26.3c-9.7,0-18.5,5.9-21.6,8.2,2-1.9,6.2-6.2,8.3-8.1,3.1-3,6.1-4.7,13-4.7h95.7l-2.9,2.9c-1.1,1.1-2.6,1.7-4.1,1.7h-20.1c-.2.2-16.7,16.5-18.2,18-2.2,2.1-5.2,3.3-8.4,3.3h-10.3Z"/>
          <path class="st3" d="M121.5,14.7l-2.8,2.7c-1.1,1.1-2.5,1.7-4.1,1.7h-20.2c-.2.2-16.7,16.5-18.2,18-2.2,2.1-5.1,3.3-8.3,3.3h-10.1l21.4-21.1.3-.3H26.3c-6.2,0-12.1,2.5-15.9,4.6-2,1.1-3.7,2.2-4.9,3.1,2.2-2.1,5.7-5.6,7.5-7.4,1.8-1.8,3.4-2.9,5.3-3.6,2-.8,4.4-1.1,7.7-1.1h95.6M121.9,14.5H26c-6.6,0-9.7,1.4-13.1,4.7-2.7,2.6-9.3,9.1-9.3,9.1h0s0,0,0,0c0,0,10.7-9.1,22.7-9.1h52.9l-21.6,21.3h10.5c3.1,0,6.2-1.2,8.4-3.3,1.6-1.5,18.2-18,18.2-18h20.1c1.6,0,3.1-.6,4.2-1.7l3-3h0Z"/>
        </g>
        <path class="st3" d="M65.7,23.7h-27.6c-1.7,0-3.3.7-4.5,1.9l-1.6,1.6h18.3c-6.8,6.6-6.9,6.7-14.2,6.7h-13.9l-6.8,6.7h28.1c2.8,0,6.3-1.1,8.7-3.5l13.6-13.4Z"/>
      </g>
      <path class="st2" d="M28.3,22.7c2.4-2.4,5-3.5,8.1-3.5h-10.1c-12,0-22.7,9.1-22.7,9.1l-1.6,1.6h19s4.4-4.4,7.2-7.2Z"/>
    </g>
  </g>
  <g>
    <g>
      <path class="st1" d="M64.8,70.2c0,.5,0,.9.2,1.3.1.3.3.7.5,1,0,.1,0,.2,0,.3,0,.1,0,.3-.3.4l-.9.6c-.1,0-.3.1-.4.1s-.3,0-.4-.2c-.2-.2-.4-.4-.5-.7-.1-.2-.3-.5-.4-.8-1.1,1.3-2.5,2-4.2,2s-2.1-.3-2.8-1c-.7-.7-1-1.6-1-2.7s.4-2.2,1.3-2.9c.9-.7,2-1.1,3.5-1.1s1,0,1.5.1c.5,0,1.1.2,1.6.3v-1c0-1.1-.2-1.8-.7-2.3-.4-.4-1.2-.7-2.3-.7s-1,0-1.5.2c-.5.1-1,.3-1.5.5-.2,0-.4.2-.5.2,0,0-.2,0-.2,0-.2,0-.3-.1-.3-.4v-.7c0-.2,0-.4,0-.5,0,0,.2-.2.4-.3.5-.2,1.1-.5,1.8-.6.7-.2,1.4-.3,2.2-.3,1.7,0,2.9.4,3.7,1.1.8.8,1.2,1.9,1.2,3.5v4.6ZM59.1,72.4c.5,0,.9,0,1.5-.3.5-.2,1-.5,1.3-.9.2-.3.4-.6.5-.9,0-.3.1-.7.1-1.2v-.6c-.4,0-.8-.2-1.3-.2-.5,0-.9,0-1.3,0-.9,0-1.6.2-2.1.6-.5.4-.7.9-.7,1.6s.2,1.2.5,1.5c.3.3.8.5,1.5.5ZM70.5,73.9c-.2,0-.4,0-.5-.1-.1,0-.2-.3-.3-.6l-3.3-10.9c0-.3-.1-.5-.1-.6,0-.2.1-.3.3-.3h1.4c.3,0,.4,0,.6.1.1,0,.2.3.3.6l2.4,9.3,2.2-9.3c0-.3.2-.5.3-.6.1,0,.3-.1.6-.1h1.1c.3,0,.5,0,.6.1.1,0,.2.3.3.6l2.2,9.5,2.4-9.5c0-.3.2-.5.3-.6.1,0,.3-.1.6-.1h1.3c.2,0,.3.1.3.3s0,.1,0,.2c0,0,0,.2,0,.3l-3.4,10.9c0,.3-.2.5-.3.6-.1,0-.3.1-.5.1h-1.2c-.3,0-.5,0-.6-.1-.1,0-.2-.3-.3-.6l-2.2-9.1-2.2,9.1c0,.3-.2.5-.3.6-.1,0-.3.1-.6.1h-1.2ZM88.6,74.3c-.7,0-1.5,0-2.2-.2-.7-.2-1.3-.4-1.6-.6-.2-.1-.4-.3-.4-.4,0-.1,0-.3,0-.4v-.7c0-.3.1-.4.3-.4s.2,0,.3,0c0,0,.2,0,.4.1.5.2,1,.4,1.6.5.6.1,1.1.2,1.7.2.9,0,1.6-.2,2.1-.5.5-.3.7-.8.7-1.3s-.1-.7-.4-1c-.3-.3-.7-.5-1.4-.7l-2.1-.6c-1-.3-1.8-.8-2.3-1.4-.5-.6-.7-1.3-.7-2.1s.1-1.1.4-1.6c.3-.5.6-.8,1-1.2.4-.3.9-.6,1.5-.7.6-.2,1.2-.2,1.8-.2s.6,0,1,0c.3,0,.6,0,.9.2.3,0,.6.1.8.2.2,0,.4.2.6.2.2.1.3.2.4.3,0,.1.1.3.1.5v.7c0,.3-.1.4-.3.4s-.3,0-.5-.2c-.8-.4-1.7-.5-2.7-.5s-1.4.1-1.9.4c-.4.3-.7.7-.7,1.3s.1.7.4,1c.3.3.8.5,1.6.8l2,.6c1,.3,1.8.8,2.2,1.4.4.6.7,1.2.7,2s-.1,1.2-.4,1.6c-.2.5-.6.9-1,1.2-.4.3-1,.6-1.6.8-.6.2-1.3.3-2,.3Z"/>
      <g>
        <path class="st0" d="M91.3,81.2c-4.6,3.4-11.4,5.3-17.2,5.3s-15.5-3-21-8c-.4-.4,0-.9.5-.6,6,3.5,13.4,5.6,21,5.6s10.8-1.1,16-3.3c.8-.3,1.4.5.7,1.1Z"/>
        <path class="st0" d="M93.2,79c-.6-.8-3.9-.4-5.4-.2-.5,0-.5-.3-.1-.6,2.7-1.9,7-1.3,7.5-.7.5.6-.1,5-2.6,7.1-.4.3-.7.1-.6-.3.6-1.4,1.8-4.5,1.2-5.3Z"/>
      </g>
    </g>
    <g>
      <path class="st1" d="M13.3,63.1c0,1.3-.5,1.6-2,1.6h-.8v1.8c0,0,0,.1,0,.1h-.8c0,0,0,0,0-.1v-4.9c0,0,0,0,0,0,.6,0,1.2,0,1.8,0,1.5,0,2,.4,2,1.7ZM10.6,62.3v1.6h.7c.8,0,1-.1,1-.8s-.2-.8-1-.8h-.7Z"/>
      <path class="st1" d="M19.1,64c0,2-.5,2.6-2.2,2.6s-2.2-.6-2.2-2.6.5-2.6,2.2-2.6,2.2.6,2.2,2.6ZM15.8,64c0,1.3.2,1.7,1.1,1.7s1.1-.4,1.1-1.7-.2-1.7-1.1-1.7-1.1.4-1.1,1.7Z"/>
      <path class="st1" d="M27.4,61.4c0,0,.1,0,0,.1l-.8,4.3c-.1.7-.3.8-1,.8s-.9,0-1.1-.8l-.6-2.5-.6,2.5c-.2.7-.3.8-1.1.8s-.9,0-1-.8l-.8-4.3c0,0,0-.1,0-.1h.9c0,0,0,0,0,.1l.7,3.8c0,.2,0,.2.2.2s.1,0,.2-.2l.9-3.6c0,0,0-.1.1-.1h.8c0,0,.1,0,.1.1l.9,3.6c0,.2,0,.2.2.2s.1,0,.2-.2l.7-3.8c0,0,0-.1,0-.1h.9Z"/>
      <path class="st1" d="M32.5,61.4c0,0,0,0,0,0v.7c0,0,0,0,0,0h-2.4v1.3h2.2c0,0,.1,0,.1,0v.7c0,0,0,0-.1,0h-2.2v1.2h2.4c0,0,0,0,0,0v.7c0,0,0,0,0,0h-3.3c0,0,0,0,0-.1v-4.9c0,0,0,0,0,0h3.3Z"/>
      <path class="st1" d="M38.1,63.1c0,1-.3,1.4-1,1.6l1.1,1.8c0,0,0,.1,0,.1h-.8c-.2,0-.2,0-.3-.1l-1.1-1.7h-.6v1.8c0,0,0,.1,0,.1h-.8c0,0,0,0,0-.1v-4.9c0,0,0,0,0,0,.6,0,1.2,0,1.8,0,1.5,0,2,.4,2,1.7ZM35.3,62.3v1.6h.7c.8,0,1-.1,1-.8s-.2-.8-1-.8h-.7Z"/>
      <path class="st1" d="M43.3,61.4c0,0,0,0,0,0v.7c0,0,0,0,0,0h-2.4v1.3h2.2c0,0,.1,0,.1,0v.7c0,0,0,0-.1,0h-2.2v1.2h2.4c0,0,0,0,0,0v.7c0,0,0,0,0,0h-3.3c0,0,0,0,0-.1v-4.9c0,0,0,0,0,0h3.3Z"/>
      <path class="st1" d="M49.3,64c0,1.8-.6,2.6-2.2,2.6s-1.3,0-1.9,0c0,0,0,0,0,0v-4.9c0,0,0,0,0,0,.6,0,1.3,0,1.9,0,1.6,0,2.2.8,2.2,2.6ZM46.1,62.3v3.4h1c.8,0,1.1-.5,1.1-1.7s-.3-1.7-1.2-1.7h-.9Z"/>
      <path class="st1" d="M43.3,70.2c0,.7-.2,1.1-.8,1.2h0c.7,0,.9.5.9,1.2,0,1.1-.6,1.4-1.8,1.4s-1.4,0-2,0c0,0,0,0,0,0v-4.9c0,0,0,0,0,0,.6,0,1.3,0,1.9,0,1.3,0,1.8.4,1.8,1.4ZM40.5,69.7v1.3h.7c.7,0,1,0,1-.6s-.3-.7-.9-.7h-.8ZM40.5,71.8v1.3h1c.6,0,.8-.1.8-.6s-.3-.7-.8-.7h-1Z"/>
      <path class="st1" d="M49.1,68.8c0,0,.1,0,0,.1l-1.8,3.4v1.5c0,0,0,.1,0,.1h-.8c0,0,0,0,0-.1v-1.6l-1.8-3.3c0-.1,0-.1,0-.1h.9c0,0,.1,0,.2.1l1.2,2.3,1.2-2.3c0,0,0-.1.2-.1h.9Z"/>
    </g>
  </g>
</svg>