<?xml version="1.0" standalone="no"?>
<!DOCTYPE svg PUBLIC "-//W3C//DTD SVG 20010904//EN"
 "http://www.w3.org/TR/2001/REC-SVG-20010904/DTD/svg10.dtd">
<svg version="1.0" xmlns="http://www.w3.org/2000/svg"
 width="560.000000pt" height="217.000000pt" viewBox="0 0 560.000000 217.000000"
 preserveAspectRatio="xMidYMid meet">

<g transform="translate(0.000000,217.000000) scale(0.100000,-0.100000)"
fill="#000000" stroke="none">
<path d="M968 2065 c-3 -3 -25 -8 -49 -11 -46 -6 -109 -22 -205 -53 -209 -67
-428 -246 -556 -454 -56 -92 -99 -209 -124 -337 -12 -64 -16 -254 -5 -290 5
-19 15 -62 21 -95 44 -219 184 -425 401 -588 110 -82 287 -161 407 -182 23 -4
54 -9 70 -12 58 -12 260 -14 312 -4 30 6 66 13 80 16 118 23 181 45 287 100
110 58 183 113 278 210 116 117 186 230 235 379 12 37 28 80 35 93 8 14 11 31
9 38 -13 32 -55 35 -484 35 -465 0 -484 -2 -478 -49 l3 -26 432 -3 432 -2 -6
-33 c-17 -85 -125 -279 -197 -354 -17 -17 -44 -46 -60 -63 -60 -65 -217 -165
-321 -203 -47 -18 -171 -52 -225 -62 -14 -3 -90 -5 -170 -6 -138 0 -252 15
-300 41 -9 5 -30 11 -45 14 -28 5 -146 60 -199 93 -35 22 -54 36 -113 86 -24
20 -48 37 -52 37 -5 0 -20 17 -34 38 -14 20 -39 51 -56 69 -17 18 -31 34 -31
37 0 3 -13 24 -29 48 -41 62 -87 163 -107 238 -27 95 -27 377 0 475 22 82 65
180 109 250 47 73 55 83 138 165 123 121 227 187 378 237 160 54 106 52 1298
53 l1113 0 2 -987 3 -988 23 -3 c53 -8 51 -44 52 1005 l0 973 1043 2 c573 2
1059 1 1081 -2 l38 -5 -28 -25 c-16 -14 -96 -80 -179 -146 -198 -160 -436
-352 -455 -367 -8 -7 -53 -43 -100 -81 -99 -79 -89 -71 -247 -199 -68 -55
-126 -104 -129 -108 -7 -12 6 -50 15 -45 6 4 58 -33 119 -85 13 -11 54 -42 92
-69 73 -52 93 -68 149 -116 20 -17 63 -50 96 -73 49 -34 173 -127 245 -184 8
-7 42 -33 75 -59 33 -26 74 -58 91 -72 18 -15 36 -26 41 -26 5 0 22 -13 38
-30 16 -16 33 -30 38 -30 4 0 15 -6 23 -12 39 -35 73 -62 117 -94 27 -20 46
-39 42 -42 -3 -3 -265 -5 -583 -4 -352 2 -583 -1 -591 -7 -19 -12 -23 -42 -8
-59 9 -12 112 -14 642 -11 346 2 643 8 658 13 26 8 28 12 23 40 -4 17 -11 33
-16 34 -6 2 -17 10 -25 18 -18 19 -87 71 -149 113 -27 19 -57 42 -67 52 -30
30 -148 119 -158 119 -5 0 -11 4 -13 9 -3 8 -110 89 -235 179 -33 23 -82 63
-109 87 -27 24 -55 44 -61 45 -7 0 -13 4 -13 8 0 4 -21 21 -47 38 -26 16 -57
38 -69 49 -12 11 -32 27 -44 35 -13 8 -28 20 -34 25 -6 6 -29 24 -51 40 -57
43 -57 42 -95 75 l-35 30 36 33 c20 17 47 40 60 51 13 10 50 41 81 67 31 27
61 49 66 49 6 0 12 3 14 8 3 8 55 52 113 97 21 17 79 64 130 105 50 41 155
127 234 190 442 357 422 339 419 379 l-3 36 -2271 2 c-1249 2 -2273 0 -2276
-2z"/>
</g>
</svg>
